{
  "accessors": [
    {
      "bufferView": 2,
      "componentType": 5126,
      "count": 758,
      "max": [4.6138434410095215, 1.835366129875183, 3.997427225112915],
      "min": [-3.3789286613464355, -1.835355281829834, -2.4486295657766277e-8],
      "type": "VEC3"
    },
    {
      "bufferView": 2,
      "byteOffset": 9096,
      "componentType": 5126,
      "count": 758,
      "max": [1, 1, 1],
      "min": [-1, -1, -1],
      "type": "VEC3"
    },
    {
      "bufferView": 1,
      "componentType": 5126,
      "count": 758,
      "max": [0.9697790145874023, 1],
      "min": [0.125, 0],
      "type": "VEC2"
    },
    {
      "bufferView": 0,
      "componentType": 5125,
      "count": 3840,
      "type": "SCALAR"
    },
    {
      "bufferView": 2,
      "byteOffset": 18192,
      "componentType": 5126,
      "count": 18206,
      "max": [4.674256801605225, 1.835361361503601, 3.994879722595215],
      "min": [-3.378542423248291, -1.8353699445724487, 0],
      "type": "VEC3"
    },
    {
      "bufferView": 2,
      "byteOffset": 236664,
      "componentType": 5126,
      "count": 18206,
      "max": [1, 1, 1],
      "min": [-1, -1, -1],
      "type": "VEC3"
    },
    {
      "bufferView": 1,
      "byteOffset": 6064,
      "componentType": 5126,
      "count": 18206,
      "max": [0.9085288643836975, 0.5333152413368225],
      "min": [0.028542399406433105, 0.03331524133682251],
      "type": "VEC2"
    },
    {
      "bufferView": 0,
      "byteOffset": 15360,
      "componentType": 5125,
      "count": 58794,
      "type": "SCALAR"
    }
  ],
  "asset": {
    "generator": "Sketchfab-16.33.0",
    "version": "2.0"
  },
  "bufferViews": [
    {
      "buffer": 0,
      "byteLength": 250536,
      "name": "floatBufferViews",
      "target": 34963,
      "byteOffset": 0
    },
    {
      "buffer": 0,
      "byteLength": 151712,
      "byteOffset": 250536,
      "byteStride": 8,
      "name": "floatBufferViews",
      "target": 34962
    },
    {
      "buffer": 0,
      "byteLength": 455136,
      "byteOffset": 402248,
      "byteStride": 12,
      "name": "floatBufferViews",
      "target": 34962
    }
  ],
  "buffers": [
    {
      "uri": "scene_data.bin",
      "byteLength": 857384
    }
  ],
  "extensionsUsed": ["KHR_materials_specular"],
  "images": [
    {
      "uri": "scene_img0.png"
    }
  ],
  "materials": [
    {
      "alphaMode": "BLEND",
      "doubleSided": true,
      "name": "COLLIDERS",
      "pbrMetallicRoughness": {
        "baseColorFactor": [1, 0, 0, 0],
        "metallicFactor": 0,
        "roughnessFactor": 0.9524611947983544
      }
    },
    {
      "alphaMode": "OPAQUE",
      "doubleSided": true,
      "extensions": {
        "KHR_materials_specular": {
          "specularColorFactor": [1, 1, 1],
          "specularFactor": 0
        }
      },
      "name": "AIRPORT",
      "pbrMetallicRoughness": {
        "baseColorTexture": {
          "index": 0
        },
        "metallicFactor": 0,
        "roughnessFactor": 0.7763932022500211
      }
    }
  ],
  "meshes": [
    {
      "name": "19.Collider_COLLIDERS_0",
      "primitives": [
        {
          "attributes": {
            "NORMAL": 1,
            "POSITION": 0,
            "TEXCOORD_0": 2
          },
          "indices": 3,
          "material": 0,
          "mode": 4
        }
      ]
    },
    {
      "name": "19.Firetruck_AIRPORT_0",
      "primitives": [
        {
          "attributes": {
            "NORMAL": 5,
            "POSITION": 4,
            "TEXCOORD_0": 6
          },
          "indices": 7,
          "material": 1,
          "mode": 4
        }
      ]
    }
  ],
  "nodes": [
    {
      "children": [1],
      "matrix": [
        1, 0, 0, 0, 0, 2.220446049250313e-16, -1, 0, 0, 1,
        2.220446049250313e-16, 0, 0, 0, 0, 1
      ],
      "name": "Sketchfab_model"
    },
    {
      "children": [2],
      "matrix": [
        0.009999999776482582, 0, 0, 0, 0, 0, 0.009999999776482582, 0, 0,
        -0.009999999776482582, 0, 0, 0, 0, 0, 1
      ],
      "name": "Airport_Firetruck.fbx"
    },
    {
      "children": [3, 5],
      "name": "RootNode"
    },
    {
      "children": [4],
      "matrix": [
        100, 0, 0, 0, 0, -0.00001629206793918314, -99.99999999999868, 0, 0,
        99.99999999999868, -0.00001629206793918314, 0, 0, 0, 0, 1
      ],
      "name": "19.Collider"
    },
    {
      "mesh": 0,
      "name": "19.Collider_COLLIDERS_0"
    },
    {
      "children": [6],
      "matrix": [
        100, 0, 0, 0, 0, -0.00001629206793918314, -99.99999999999868, 0, 0,
        99.99999999999868, -0.00001629206793918314, 0, 0, 0, 0, 1
      ],
      "name": "19.Firetruck"
    },
    {
      "mesh": 1,
      "name": "19.Firetruck_AIRPORT_0"
    }
  ],
  "samplers": [
    {
      "magFilter": 9729,
      "minFilter": 9987,
      "wrapS": 10497,
      "wrapT": 10497
    }
  ],
  "scene": 0,
  "scenes": [
    {
      "name": "Sketchfab_Scene",
      "nodes": [0]
    }
  ],
  "textures": [
    {
      "sampler": 0,
      "source": 0
    }
  ]
}
